<svg id="visual" viewBox="0 0 1440 900" width="1440" height="900" xmlns="http://www.w3.org/2000/svg" xmlns:xlink="http://www.w3.org/1999/xlink" version="1.1"><path d="M957 900L967 862.5C977 825 997 750 1008.7 675C1020.3 600 1023.7 525 990.3 450C957 375 887 300 862.3 225C837.7 150 858.3 75 868.7 37.5L879 0L1440 0L1440 37.5C1440 75 1440 150 1440 225C1440 300 1440 375 1440 450C1440 525 1440 600 1440 675C1440 750 1440 825 1440 862.5L1440 900Z" fill="#ef9f27" stroke-linecap="round" stroke-linejoin="miter"></path></svg>