<svg width="266" height="49" viewBox="0 0 266 49" fill="none" xmlns="http://www.w3.org/2000/svg">
<path d="M27.016 48L11.912 28.16V48H0.968V3.072H11.912V22.784L26.888 3.072H39.752L22.344 25.088L40.392 48H27.016ZM61.7995 25.472C61.7995 21.0347 62.7595 17.088 64.6795 13.632C66.5995 10.1333 69.2662 7.424 72.6795 5.504C76.1355 3.54133 80.0395 2.56 84.3915 2.56C89.7248 2.56 94.2902 3.968 98.0875 6.784C101.885 9.6 104.424 13.44 105.704 18.304H93.6715C92.7755 16.4267 91.4955 14.9973 89.8315 14.016C88.2102 13.0347 86.3542 12.544 84.2635 12.544C80.8928 12.544 78.1622 13.7173 76.0715 16.064C73.9808 18.4107 72.9355 21.5467 72.9355 25.472C72.9355 29.3973 73.9808 32.5333 76.0715 34.88C78.1622 37.2267 80.8928 38.4 84.2635 38.4C86.3542 38.4 88.2102 37.9093 89.8315 36.928C91.4955 35.9467 92.7755 34.5173 93.6715 32.64H105.704C104.424 37.504 101.885 41.344 98.0875 44.16C94.2902 46.9333 89.7248 48.32 84.3915 48.32C80.0395 48.32 76.1355 47.36 72.6795 45.44C69.2662 43.4773 66.5995 40.768 64.6795 37.312C62.7595 33.856 61.7995 29.9093 61.7995 25.472ZM128.662 48.512C125.163 48.512 122.006 47.7653 119.19 46.272C116.416 44.7787 114.219 42.6453 112.598 39.872C111.019 37.0987 110.23 33.856 110.23 30.144C110.23 26.4747 111.04 23.2533 112.661 20.48C114.283 17.664 116.502 15.5093 119.318 14.016C122.134 12.5227 125.291 11.776 128.79 11.776C132.288 11.776 135.446 12.5227 138.262 14.016C141.078 15.5093 143.296 17.664 144.918 20.48C146.539 23.2533 147.35 26.4747 147.35 30.144C147.35 33.8133 146.518 37.056 144.854 39.872C143.232 42.6453 140.992 44.7787 138.134 46.272C135.318 47.7653 132.16 48.512 128.662 48.512ZM128.662 39.04C130.752 39.04 132.523 38.272 133.974 36.736C135.467 35.2 136.214 33.0027 136.214 30.144C136.214 27.2853 135.488 25.088 134.038 23.552C132.63 22.016 130.88 21.248 128.79 21.248C126.656 21.248 124.886 22.016 123.478 23.552C122.07 25.0453 121.366 27.2427 121.366 30.144C121.366 33.0027 122.048 35.2 123.414 36.736C124.822 38.272 126.571 39.04 128.662 39.04ZM150.98 30.08C150.98 26.4107 151.662 23.1893 153.028 20.416C154.436 17.6427 156.334 15.5093 158.724 14.016C161.113 12.5227 163.78 11.776 166.724 11.776C169.07 11.776 171.204 12.2667 173.124 13.248C175.086 14.2293 176.622 15.552 177.732 17.216V0.639999H188.676V48H177.732V42.88C176.708 44.5867 175.236 45.952 173.316 46.976C171.438 48 169.241 48.512 166.724 48.512C163.78 48.512 161.113 47.7653 158.724 46.272C156.334 44.736 154.436 42.5813 153.028 39.808C151.662 36.992 150.98 33.7493 150.98 30.08ZM177.732 30.144C177.732 27.4133 176.964 25.2587 175.428 23.68C173.934 22.1013 172.1 21.312 169.924 21.312C167.748 21.312 165.892 22.1013 164.356 23.68C162.862 25.216 162.116 27.3493 162.116 30.08C162.116 32.8107 162.862 34.9867 164.356 36.608C165.892 38.1867 167.748 38.976 169.924 38.976C172.1 38.976 173.934 38.1867 175.428 36.608C176.964 35.0293 177.732 32.8747 177.732 30.144ZM230.257 29.568C230.257 30.592 230.193 31.6587 230.065 32.768H205.297C205.468 34.9867 206.172 36.6933 207.409 37.888C208.689 39.04 210.246 39.616 212.081 39.616C214.812 39.616 216.71 38.464 217.777 36.16H229.425C228.828 38.5067 227.74 40.6187 226.161 42.496C224.625 44.3733 222.684 45.8453 220.337 46.912C217.99 47.9787 215.366 48.512 212.465 48.512C208.966 48.512 205.852 47.7653 203.121 46.272C200.39 44.7787 198.257 42.6453 196.721 39.872C195.185 37.0987 194.417 33.856 194.417 30.144C194.417 26.432 195.164 23.1893 196.657 20.416C198.193 17.6427 200.326 15.5093 203.057 14.016C205.788 12.5227 208.924 11.776 212.465 11.776C215.921 11.776 218.993 12.5013 221.681 13.952C224.369 15.4027 226.46 17.472 227.953 20.16C229.489 22.848 230.257 25.984 230.257 29.568ZM219.057 26.688C219.057 24.8107 218.417 23.3173 217.137 22.208C215.857 21.0987 214.257 20.544 212.337 20.544C210.502 20.544 208.945 21.0773 207.665 22.144C206.428 23.2107 205.66 24.7253 205.361 26.688H219.057ZM250.559 48.512C247.444 48.512 244.671 47.9787 242.239 46.912C239.807 45.8453 237.887 44.3947 236.479 42.56C235.071 40.6827 234.281 38.592 234.111 36.288H244.927C245.055 37.5253 245.631 38.528 246.655 39.296C247.679 40.064 248.937 40.448 250.431 40.448C251.796 40.448 252.841 40.192 253.567 39.68C254.335 39.1253 254.719 38.4213 254.719 37.568C254.719 36.544 254.185 35.7973 253.119 35.328C252.052 34.816 250.324 34.2613 247.935 33.664C245.375 33.0667 243.241 32.448 241.535 31.808C239.828 31.1253 238.356 30.08 237.119 28.672C235.881 27.2213 235.263 25.28 235.263 22.848C235.263 20.8 235.817 18.944 236.927 17.28C238.079 15.5733 239.743 14.2293 241.919 13.248C244.137 12.2667 246.761 11.776 249.791 11.776C254.271 11.776 257.791 12.8853 260.351 15.104C262.953 17.3227 264.447 20.2667 264.831 23.936H254.719C254.548 22.6987 253.993 21.7173 253.055 20.992C252.159 20.2667 250.964 19.904 249.471 19.904C248.191 19.904 247.209 20.16 246.527 20.672C245.844 21.1413 245.503 21.8027 245.503 22.656C245.503 23.68 246.036 24.448 247.103 24.96C248.212 25.472 249.919 25.984 252.223 26.496C254.868 27.1787 257.023 27.8613 258.687 28.544C260.351 29.184 261.801 30.2507 263.039 31.744C264.319 33.1947 264.98 35.1573 265.023 37.632C265.023 39.7227 264.425 41.6 263.231 43.264C262.079 44.8853 260.393 46.1653 258.175 47.104C255.999 48.0427 253.46 48.512 250.559 48.512Z" fill="white"/>
<path d="M50.713 48.512C48.793 48.512 47.2143 47.9573 45.977 46.848C44.7823 45.696 44.185 44.288 44.185 42.624C44.185 40.9173 44.7823 39.488 45.977 38.336C47.2143 37.184 48.793 36.608 50.713 36.608C52.5903 36.608 54.1263 37.184 55.321 38.336C56.5583 39.488 57.177 40.9173 57.177 42.624C57.177 44.288 56.5583 45.696 55.321 46.848C54.1263 47.9573 52.5903 48.512 50.713 48.512Z" fill="#FF0000"/>
</svg>
